Coordinates
version=1
nRows=14
nColumns=24
inDegrees=yes

Units are S.I. units (second, meters, Newtons, ...)
Angles are in degrees.

endheader
time	pelvis_tilt	pelvis_list	pelvis_rotation	pelvis_tx	pelvis_ty	pelvis_tz	hip_flexion_r	hip_adduction_r	hip_rotation_r	knee_angle_r	ankle_angle_r	subtalar_angle_r	mtp_angle_r	hip_flexion_l	hip_adduction_l	hip_rotation_l	knee_angle_l	ankle_angle_l	subtalar_angle_l	mtp_angle_l	lumbar_extension	lumbar_bending	lumbar_rotation
      1.50450000	     -2.55942883	     -3.91458093	     -9.47801580	      0.95403878	      0.98808126	      0.30553181	    -17.09927827	      6.35572414	     11.35304166	    -13.34409731	     12.66716201	     -2.80445903	      6.70453261	     32.18344918	     -7.48019002	     -4.32021225	     -3.12370232	     13.61437217	    -10.02013920	     -1.99547455	     -0.27134082	      1.54519097	     10.44487951
      1.50866667	     -2.57033304	     -3.83286212	     -9.57908723	      0.96025367	      0.98730894	      0.30505001	    -17.36734905	      6.12679884	     11.26679297	    -13.43100565	     12.42721074	     -2.62046219	      6.79608199	     32.19193655	     -7.37316952	     -4.15890699	     -3.69651750	     13.84512165	    -10.18475031	     -1.97472498	     -0.16368817	      1.50009830	     10.54446972
      1.51283333	     -2.58971896	     -3.76932903	     -9.66734900	      0.96649472	      0.98650474	      0.30451740	    -17.59242914	      5.91098235	     11.05329542	    -13.58135782	     12.17849932	     -2.25408981	     10.98001656	     32.18313520	     -7.26558097	     -3.86153842	     -4.21425113	     13.88487628	    -10.60145841	     -1.21794551	     -0.01204679	      1.46735566	     10.67428877
      1.51700000	     -2.57475964	     -3.67269130	     -9.75988444	      0.97283765	      0.98577035	      0.30402471	    -17.87212405	      5.66474403	     10.93563367	    -13.69708690	     11.88377485	     -2.12960717	     10.99852512	     32.13629639	     -7.13483334	     -3.75774548	     -4.75941701	     14.04524338	    -10.67220080	     -1.20270688	      0.11906509	      1.37184565	     10.81406714
      1.52116667	     -2.58031720	     -3.56927398	     -9.86376372	      0.97921440	      0.98501911	      0.30350178	    -18.10295517	      5.40587169	     10.77954945	    -13.86618126	     11.66278594	     -1.85250539	     11.11423845	     32.10282975	     -6.99957117	     -3.66709876	     -5.30170131	     14.13835237	    -10.78594770	     -1.14616361	      0.26119437	      1.29603163	     11.08411005
      1.52533333	     -2.59884225	     -3.47524264	     -9.94773598	      0.98564600	      0.98424581	      0.30295897	    -18.32435430	      5.17040207	     10.64683642	    -14.02684014	     11.33699413	     -1.69627631	     11.15779780	     32.07455389	     -6.86345754	     -3.55224206	     -5.81894676	     14.16289451	    -10.88795983	     -1.11590377	      0.43656148	      1.22351186	     11.13778146
      1.52950000	     -2.61998146	     -3.35216720	    -10.03928789	      0.99210806	      0.98347623	      0.30237712	    -18.49804385	      4.89331304	     10.41609728	    -14.26998060	     11.12953878	     -1.33438058	     11.42213577	     32.02307807	     -6.69221685	     -3.40100257	     -6.28495551	     14.03066247	    -11.17294699	     -0.96230970	      0.61186565	      1.13126364	     11.35281369
      1.53366667	     -2.64727518	     -3.23327988	    -10.12050405	      0.99864950	      0.98271862	      0.30181145	    -18.68746960	      4.63580992	     10.27321230	    -14.46460876	     10.74118393	     -1.21320919	     11.47711851	     31.98647628	     -6.52984833	     -3.33960456	     -6.77395330	     13.93373520	    -11.25038126	     -0.92256959	      0.80440721	      1.04493784	     11.38217696
      1.53783333	     -2.68590991	     -3.09924513	    -10.18694939	      1.00519804	      0.98194593	      0.30119845	    -18.83312234	      4.36652263	     10.07013188	    -14.71053102	     10.35762650	     -1.02551882	     13.78490759	     31.92298538	     -6.32537180	     -3.06967959	     -7.15700944	     13.53424830	    -11.78242612	      0.54005617	      1.01190620	      0.91368267	     11.39691565
      1.54200000	     -2.70545405	     -2.94543667	    -10.25888061	      1.01179663	      0.98122144	      0.30057918	    -18.97648105	      4.06752584	      9.81767587	    -14.99887946	     10.06156254	     -0.73566043	     13.89405881	     31.87985012	     -6.12851252	     -3.14618018	     -7.63066616	     13.29602021	    -11.71928867	      0.60693917	      1.23004414	      0.79442244	     11.62934832
      1.54616667	     -2.73366899	     -2.81048666	    -10.31683404	      1.01840053	      0.98050292	      0.29993655	    -19.10428449	      3.80217941	      9.60433339	    -15.29688806	      9.62134778	     -0.59417642	     13.94247630	     31.84013060	     -5.93915525	     -3.14063206	     -8.08001983	     12.96538705	    -11.76199903	      0.64045659	      1.44182428	      0.69678525	     11.66338773
      1.55033333	     -2.76699132	     -2.63767213	    -10.36969733	      1.02502092	      0.97979425	      0.29926547	    -19.19175453	      3.49802931	      9.34243188	    -15.64678770	      9.20445153	     -0.38999686	     15.32609979	     31.77083484	     -5.68787116	     -2.92593643	     -8.43293088	     12.32876522	    -12.29856855	      1.55075445	      1.63411141	      0.52912189	     11.70243159
      1.55450000	     -2.81459826	     -2.45170658	    -10.42708844	      1.03168972	      0.97908670	      0.29857688	    -19.23462313	      3.17596978	      9.02445547	    -16.05346334	      8.86551335	     -0.06656744	     15.51447899	     31.76759151	     -5.45760352	     -3.04495386	     -8.89323956	     11.86915339	    -12.27235996	      1.66392954	      1.90569534	      0.39194422	     11.87688315
      1.55866667	     -2.86590417	     -2.27120565	    -10.45102510	      1.03833985	      0.97839656	      0.29785817	    -19.27447374	      2.88143069	      8.74341464	    -16.43938380	      8.32989303	      0.06441292	     17.84841629	     31.76749401	     -5.20811273	     -3.01191377	     -9.32632605	     11.22556894	    -12.48049162	      3.15199689	      2.15729147	      0.23311212	     11.89481663
